<?xml version="1.0" encoding="iso-8859-1"?>
<!-- Generator: Adobe Illustrator 19.0.0, SVG Export Plug-In . SVG Version: 6.00 Build 0)  -->
<svg version="1.1" id="Layer_1" xmlns="http://www.w3.org/2000/svg" xmlns:xlink="http://www.w3.org/1999/xlink" x="0px" y="0px"
	 viewBox="0 0 512.001 512.001" style="enable-background:new 0 0 512.001 512.001;" xml:space="preserve">
<path style="fill:#000;" d="M385.635,129.539v32.341h71.156l-70.45,70.45c-27.933-22.782-62.561-35.17-99.095-35.17
	c-41.971,0-81.431,16.345-111.109,46.023c-29.679,29.679-46.023,69.138-46.023,111.11s16.345,81.431,46.023,111.11
	s69.138,46.023,111.11,46.023s81.432-16.345,111.11-46.023c57.406-57.406,61.021-148.544,10.849-210.201l70.453-70.453v71.156
	h32.341V129.539H385.635z M375.488,442.534c-23.57,23.57-54.909,36.55-88.242,36.55s-64.671-12.98-88.242-36.55
	c-23.57-23.57-36.55-54.909-36.55-88.242s12.98-64.671,36.55-88.242s54.909-36.551,88.242-36.551s64.671,12.98,88.242,36.551
	C424.145,314.708,424.145,393.878,375.488,442.534z"/>
<path style="fill:#000;" d="M255.449,0.574v32.341h71.161l-70.462,70.451c-61.656-50.17-152.795-46.55-210.195,10.85
	c-61.27,61.27-61.27,160.954,0,222.224c24.318,24.318,54.698,38.986,86.319,43.994c-1.429-8.555-2.16-17.297-2.16-26.144
	c0-2.379,0.052-4.757,0.156-7.115c-22.545-4.914-43.973-16.118-61.448-33.603c-48.657-48.657-48.657-127.83,0-176.488
	c48.657-48.647,127.82-48.647,176.477,0c17.193,17.193,28.304,38.183,33.342,60.3c2.42,10.589,3.443,21.439,3.067,32.247
	c-1.033,30.505-13.176,60.707-36.41,83.94c-22.941,22.941-52.643,35.064-82.762,36.368c-0.063,1.45-0.083,2.9-0.083,4.35
	c0,9.494,1.054,18.831,3.109,27.865c37.359-2.003,74.134-17.245,102.604-45.715c28.856-28.856,44.119-66.226,45.799-104.086
	c0.49-11.111-0.188-22.263-2.024-33.269c-4.392-26.081-15.367-51.276-32.925-72.851l70.462-70.451v71.161h32.341V0.574H255.449z"/>
<g>
</g>
<g>
</g>
<g>
</g>
<g>
</g>
<g>
</g>
<g>
</g>
<g>
</g>
<g>
</g>
<g>
</g>
<g>
</g>
<g>
</g>
<g>
</g>
<g>
</g>
<g>
</g>
<g>
</g>
</svg>
