<svg height="512pt" viewBox="0 0 512 512.00019" width="512pt" xmlns="http://www.w3.org/2000/svg"><path d="m507.03125 4.96875c-3.246094-3.242188-7.707031-5.0234375-12.265625-4.96875h-119.828125c-8.285156 0-15 6.71875-15 15 0 8.285156 6.714844 15 15 15h85.847656l-82.675781 82.675781c-21.257813-16.628906-47.289063-25.644531-74.707031-25.644531-32.472656 0-63 12.648438-85.957032 35.605469-17.09375 17.09375-28.46875 38.382812-33.167968 61.542969-23.160156 4.695312-44.449219 16.070312-61.539063 33.164062-22.960937 22.960938-35.605469 53.488281-35.605469 85.960938 0 27.414062 9.015626 53.445312 25.644532 74.707031l-38.628906 38.625-46.765626-46.765625c-5.855468-5.859375-15.355468-5.859375-21.214843 0-5.855469 5.855468-5.855469 15.351562 0 21.210937l46.769531 46.769531-48.542969 48.542969c-5.859375 5.855469-5.859375 15.355469 0 21.210938 2.929688 2.929687 6.765625 4.394531 10.605469 4.394531s7.679688-1.464844 10.605469-4.394531l48.542969-48.542969 46.765624 46.769531c2.929688 2.929688 6.769532 4.394531 10.609376 4.394531 3.835937 0 7.675781-1.464843 10.605468-4.394531 5.855469-5.855469 5.855469-15.355469 0-21.210937l-46.769531-46.769532 38.628906-38.625c21.257813 16.625 47.289063 25.640626 74.707031 25.640626 32.46875 0 63-12.644532 85.957032-35.605469 17.09375-17.089844 28.46875-38.378907 33.167968-61.539063 23.160157-4.699218 44.445313-16.074218 61.539063-33.167968 22.960937-22.957032 35.605469-53.484376 35.605469-85.957032 0-27.417968-9.015625-53.449218-25.644532-74.707031l82.675782-82.675781v85.847656c0 8.285156 6.714844 15 15 15s15-6.714844 15-15v-119.828125c.074218-4.574219-1.722656-9.019531-4.964844-12.265625zm-233.589844 363.082031c-17.292968 17.292969-40.289062 26.816407-64.746094 26.816407-24.457031 0-47.449218-9.523438-64.746093-26.816407-17.292969-17.296875-26.816407-40.289062-26.816407-64.746093 0-24.457032 9.523438-47.453126 26.816407-64.746094 10.8125-10.8125 23.855469-18.589844 38.089843-22.898438 1.699219 29.816406 14.117188 57.609375 35.40625 78.894532 21.285157 21.289062 49.078126 33.707031 78.894532 35.40625-4.308594 14.234374-12.085938 27.273437-22.898438 38.089843zm-61.546875-156.253906c23.257813.792969 45.007813 10.222656 61.546875 26.761719 16.539063 16.539062 25.96875 38.289062 26.761719 61.546875-23.257813-.792969-45.007813-10.222657-61.546875-26.761719-16.535156-16.539062-25.96875-38.289062-26.761719-61.546875zm156.253907 61.546875c-10.8125 10.8125-23.855469 18.585938-38.089844 22.894531-1.699219-29.8125-14.117188-57.605469-35.40625-78.890625-21.285156-21.289062-49.078125-33.710937-78.894532-35.40625 4.308594-14.234375 12.085938-27.277344 22.898438-38.089844 17.292969-17.292968 40.289062-26.820312 64.746094-26.820312 24.457031 0 47.449218 9.527344 64.746094 26.820312 17.292968 17.292969 26.816406 40.289063 26.816406 64.746094 0 24.457032-9.523438 47.449219-26.816406 64.746094zm0 0"/></svg>