<?xml version="1.0" encoding="iso-8859-1"?>
<!-- Generator: Adobe Illustrator 19.0.0, SVG Export Plug-In . SVG Version: 6.00 Build 0)  -->
<svg version="1.1" id="Layer_1" xmlns="http://www.w3.org/2000/svg" xmlns:xlink="http://www.w3.org/1999/xlink" x="0px" y="0px"
	 viewBox="0 0 512 512" style="enable-background:new 0 0 512 512;" xml:space="preserve">
<path style="fill:#000;" d="M353.135,176.509C353.135,79.181,273.954,0,176.627,0S0.118,79.181,0.118,176.509
	c0,91.87,70.553,167.557,160.32,175.759v55.958H89.042v32.376h71.396v71.396h32.376v-71.397h71.395v-32.376h-71.395v-55.958
	C282.582,344.066,353.135,268.377,353.135,176.509z M32.494,176.509c0-79.475,64.659-144.132,144.132-144.132
	s144.132,64.658,144.132,144.132s-64.658,144.132-144.132,144.132S32.494,255.983,32.494,176.509z"/>
<path style="fill:#000;" d="M511.882,176.508c0-97.328-79.176-176.503-176.503-176.503c-28.533,0-55.499,6.799-79.374,18.872
	c11.666,5.901,22.601,13.055,32.606,21.295c14.674-5.055,30.402-7.791,46.768-7.791c79.479,0,144.127,64.648,144.127,144.127
	s-64.648,144.138-144.127,144.138c-16.366,0-32.115-2.747-46.789-7.802c-11.603-3.99-22.538-9.42-32.585-16.084
	c-38.998-25.818-64.753-70.079-64.753-120.252s25.755-94.435,64.753-120.242c-10.058-6.674-21.003-12.105-32.606-16.094
	c-39.374,32.397-64.523,81.484-64.523,136.336c0,54.862,25.16,103.949,64.544,136.336c10.005,8.24,20.93,15.394,32.585,21.285
	c19.311,9.765,40.638,16.084,63.186,18.141v55.959h-71.395v32.376h71.395V512h32.376v-71.395h71.395v-32.376h-71.395V352.27
	C441.333,344.061,511.882,268.373,511.882,176.508z"/>
<g>
</g>
<g>
</g>
<g>
</g>
<g>
</g>
<g>
</g>
<g>
</g>
<g>
</g>
<g>
</g>
<g>
</g>
<g>
</g>
<g>
</g>
<g>
</g>
<g>
</g>
<g>
</g>
<g>
</g>
</svg>
