<svg height="512" viewBox="0 0 56 56" width="512" xmlns="http://www.w3.org/2000/svg"><g id="Page-1" fill="none" fill-rule="evenodd"><g id="012---Transgender" fill="rgb(0,0,0)" fill-rule="nonzero" transform="translate(0 -1)"><path id="Shape" d="m37.54 16.61c-.3475995.3445021-.8934611.386817-1.29.1-4.9065737-3.6132226-11.5934263-3.6132226-16.5 0-.3965389.286817-.9424005.2445021-1.29-.1l-2.32-2.32c-.3877236-.3900375-.3877236-1.0199625 0-1.41l.71-.71c.5055308-.5055308.7029631-1.242358.517926-1.932926-.1850371-.69056791-.7244321-1.22996288-1.415-1.41499999-.690568-.18503712-1.4273952.01239516-1.932926.51792599l-.71.71c-.3900375.3877236-1.0199625.3877236-1.41 0l-3.17-3.17c-.25450635-.25321868-.35374011-.62343691-.26-.97.09519152-.34514384.36485616-.61480848.71-.71l1.02-.27c.7218806-.15466099 1.2998532-.69442165 1.5034534-1.40405431.2036003-.70963266-.0002873-1.47371631-.5303633-1.98757528-.530076-.51385896-1.30012398-.69391462-2.0030901-.46837041l-7.17 1.91-1.93 7.16c-.2863859 1.0682105.3435275 2.1672083 1.41 2.46.69310797.1782424 1.42895814-.0189958 1.94-.52.24095537-.2499482.41618259-.5557368.51-.89l.28-1.05c.09519152-.34514384.36485616-.61480848.71-.71.34346558-.08989496.70884347.00906155.96.26l3.19 3.19c.38772359.3900375.38772359 1.0199625 0 1.41l-.71.71c-.50553082.5055308-.70296309 1.242358-.51792597 1.932926.18503712.6905679.72443208 1.2299629 1.41500001 1.415.69056794.1850371 1.42739516-.0123952 1.93292596-.517926l.71-.71c.3900375-.3877236 1.0199625-.3877236 1.41 0l2.52 2.51c.3188769.3265601.3802738.8259214.15 1.22-2.3268326 3.8923791-2.6206408 8.6717069-.7880935 12.819783 1.8325473 4.1480762 5.5636525 7.1492678 10.0080935 8.050217.4682624.0907353.8048478.5030524.8.98v4.3c0 .5522847-.4477153 1-1 1h-2c-1.1045695 0-2 .8954305-2 2s.8954305 2 2 2h2c.5522847 0 1 .4477153 1 1v2c0 1.1045695.8954305 2 2 2s2-.8954305 2-2v-2c0-.5522847.4477153-1 1-1h2c1.1045695 0 2-.8954305 2-2s-.8954305-2-2-2h-2c-.5522847 0-1-.4477153-1-1v-4.3c-.0048478-.4769476.3317376-.8892647.8-.98 4.444441-.9009492 8.1755462-3.9021408 10.0080935-8.050217 1.8325473-4.1480761 1.5387391-8.9274039-.7880935-12.819783-.2302738-.3940786-.1688769-.8934399.15-1.22l9.95-9.94c.2511565-.25093845.6165344-.34989496.96-.26.3451438.09519152.6148085.36485616.71.71l.28 1.05c.0938174.3342632.2690446.6400518.51.89.5142633.5025476 1.2537895.6997546 1.95.52 1.0617083-.2981004 1.6859317-1.39495 1.4-2.46l-1.93-7.16-7.17-1.91c-.7029661-.22554421-1.4730141-.04548855-2.0030901.46837041-.530076.51385897-.7339636 1.27794262-.5303633 1.98757528.2036002.70963266.7815728 1.24939332 1.5034534 1.40405431l1.02.27c.3451438.09519152.6148085.36485616.71.71.0937401.34656309-.0054936.71678132-.26.97zm-9.54 21.39c-5.5228475 0-10-4.4771525-10-10s4.4771525-10 10-10 10 4.4771525 10 10c-.0088096 5.5191943-4.4808057 9.9911904-10 10z"/></g></g></svg>